<svg xmlns="http://www.w3.org/2000/svg" width="118" height="44" viewBox="0 0 118 44" fill="none">
<path fill-rule="evenodd" clip-rule="evenodd" d="M42.29 13.01V26.02H48.69V21.06C48.69 17.78 48.71 15.98 48.74 15.74C48.81 15.23 48.99 14.74 49.23 14.37C49.67 13.71 50.3 13.41 51.17 13.46C52.29 13.52 52.95 14.18 53.14 15.44C53.17 15.63 53.19 17.6 53.19 20.88V26.02H59.59V20.03C59.59 14.98 59.58 13.94 59.52 13.44C59.31 11.64 58.7 10.25 57.67 9.21C56.78 8.32 55.68 7.79 54.32 7.61C53.79 7.54 52.46 7.58 51.99 7.68C50.83 7.93 49.92 8.42 49.1 9.24L48.65 9.69V0H42.3V13.01H42.29ZM110.32 0.2C110.15 0.6 103.64 16.33 103.64 16.35C103.64 16.36 105.34 16.37 107.43 16.36H111.22L114.59 8.21C116.45 3.73 117.97 0.05 117.97 0.03C117.97 0.01 116.27 0 114.19 0H110.41L110.32 0.2ZM28.26 7.59C26.85 7.8 25.78 8.19 24.71 8.9C22.56 10.32 21.09 12.73 20.68 15.51C20.49 16.79 20.57 18.41 20.89 19.65C21.68 22.77 23.77 25.15 26.53 26.07C27.53 26.4 27.9 26.46 29.13 26.46C30.02 26.46 30.29 26.45 30.61 26.38C31.9 26.1 32.85 25.61 33.64 24.82L34.05 24.41V26.03H40.22V7.98H34.05V9.64L33.76 9.34C33.02 8.56 32.01 8.02 30.76 7.72C30.34 7.62 30.14 7.6 29.35 7.59C28.84 7.59 28.36 7.59 28.28 7.59H28.26ZM69.12 7.64C67.37 7.87 65.6 8.63 64.3 9.69C61.75 11.76 60.51 15.09 61.01 18.51C61.56 22.28 64.23 25.23 67.96 26.19C68.8 26.4 69.55 26.49 70.55 26.49C72.3 26.49 73.63 26.19 75.09 25.47C77.84 24.11 79.67 21.55 80.12 18.44C80.23 17.69 80.23 16.36 80.12 15.62C79.89 14.08 79.32 12.64 78.44 11.42C78.09 10.93 77.21 10.01 76.73 9.64C75.34 8.56 73.71 7.88 71.94 7.65C71.23 7.56 69.83 7.56 69.13 7.65L69.12 7.64ZM89.48 7.64C87.75 7.87 86.12 8.56 84.75 9.63C84.27 10 83.39 10.92 83.04 11.41C82.16 12.63 81.59 14.07 81.36 15.61C81.25 16.35 81.25 17.68 81.36 18.43C81.94 22.44 84.84 25.5 88.81 26.29C89.57 26.44 90.01 26.48 90.92 26.48C92.65 26.48 94.14 26.14 95.55 25.41C99.3 23.48 101.23 19.33 100.37 15.03C99.58 11.06 96.42 8.18 92.27 7.64C91.59 7.55 90.18 7.55 89.48 7.64ZM0 8C0 8 1.73 12.1 3.83 17.07C5.94 22.05 7.66 26.14 7.66 26.17C7.66 26.2 7.04 27.68 6.28 29.46C5.52 31.24 4.91 32.71 4.91 32.72C4.91 32.73 6.44 32.73 8.31 32.72H11.71L16.82 20.4C19.63 13.63 21.93 8.06 21.93 8.03C21.93 7.98 21.25 7.97 18.57 7.98H15.2L13.13 13.24C11.99 16.13 11.05 18.48 11.04 18.46C11.03 18.45 10.1 16.09 8.97 13.21L6.93 7.99H3.47C1.56 7.97 0.01 7.98 0.01 7.99L0 8ZM31.39 13.45C32.67 13.74 33.69 14.75 34.04 16.06C34.18 16.58 34.18 17.44 34.04 17.96C33.69 19.27 32.72 20.24 31.41 20.59C30.89 20.73 30.03 20.73 29.51 20.59C28.39 20.3 27.43 19.47 27.02 18.44C26.57 17.31 26.71 15.89 27.36 14.94C28.26 13.64 29.77 13.08 31.39 13.45ZM71.23 13.47C72.62 13.72 73.7 14.75 74.04 16.17C74.15 16.64 74.14 17.49 74.02 17.97C73.69 19.23 72.75 20.19 71.51 20.53C71.08 20.65 70.03 20.65 69.61 20.53C68.59 20.25 67.78 19.57 67.34 18.62C67.08 18.06 67 17.7 67 17.02C67 16.41 67.06 16.1 67.27 15.58C67.52 14.95 68 14.36 68.57 13.99C69.31 13.5 70.32 13.31 71.24 13.47H71.23ZM91.58 13.47C92.77 13.68 93.76 14.47 94.2 15.58C94.41 16.1 94.47 16.41 94.47 17.02C94.47 17.69 94.39 18.06 94.13 18.62C93.69 19.56 92.88 20.25 91.86 20.53C91.44 20.65 90.38 20.64 89.96 20.53C88.73 20.19 87.78 19.23 87.45 17.97C87.31 17.45 87.31 16.59 87.45 16.07C87.88 14.47 89.23 13.42 90.89 13.4C91.08 13.4 91.39 13.43 91.59 13.46L91.58 13.47ZM105.15 17.93C103.3 18.16 101.83 19.49 101.43 21.3C101.32 21.8 101.33 22.69 101.46 23.2C101.85 24.77 103.06 25.94 104.63 26.27C104.83 26.31 105.21 26.34 105.5 26.34C106.71 26.34 107.67 25.95 108.52 25.09C109.38 24.23 109.77 23.29 109.77 22.05C109.77 20.54 109.08 19.28 107.82 18.51C107.08 18.05 106.01 17.82 105.15 17.93ZM52.44 27.72C51.15 28.15 50.59 29.6 51.26 30.75C51.44 31.05 51.86 31.42 52.21 31.59C52.51 31.73 52.55 31.74 53.08 31.74C53.61 31.74 53.65 31.74 53.95 31.59C54.35 31.4 54.8 30.97 54.98 30.58C55.47 29.54 55.02 28.34 53.96 27.83C53.64 27.68 53.56 27.66 53.16 27.65C52.81 27.64 52.65 27.65 52.45 27.72H52.44ZM47.09 27.82C45.38 28.16 44.25 29.25 43.82 30.98C43.76 31.24 43.71 31.59 43.7 32.03L43.67 32.69H42.29V34.21L42.31 35.73H42.99L43.67 35.76V42.95H47.38V35.76H48.64L49.9 35.74V34.22L49.92 32.7H47.36L47.39 32.36C47.46 31.61 47.76 31.2 48.35 31.02C48.75 30.9 49.32 30.92 49.75 31.07C49.9 31.12 50.03 31.17 50.04 31.17C50.05 31.17 50.06 30.47 50.06 29.62V28.07L49.79 27.97C49.34 27.8 48.89 27.74 48.16 27.74C47.7 27.74 47.34 27.77 47.06 27.83L47.09 27.82ZM62.28 32.48C61.5 32.65 60.86 33.03 60.45 33.58L60.24 33.86V32.69H56.48V42.94H60.24V40.15C60.24 38.54 60.26 37.24 60.29 37.08C60.35 36.71 60.57 36.26 60.78 36.11C61.32 35.7 62.18 35.79 62.54 36.31C62.82 36.72 62.82 36.66 62.84 39.95L62.86 42.95H66.61V39.59C66.61 36.02 66.59 35.61 66.4 34.94C66.21 34.29 65.96 33.86 65.5 33.4C65.06 32.96 64.68 32.73 64.11 32.57C63.66 32.44 62.74 32.4 62.3 32.5L62.28 32.48ZM71.76 32.45C71.15 32.53 70.25 32.89 69.77 33.24C68.68 34.03 67.93 35.27 67.66 36.71C67.56 37.28 67.56 38.43 67.66 38.98C67.84 39.91 68.2 40.74 68.71 41.41C69.39 42.31 70.36 42.92 71.44 43.14C72.03 43.26 73.01 43.24 73.51 43.09C74.08 42.92 74.56 42.65 74.97 42.27L75.34 41.92V42.95H79.05V32.7H75.34V33.76L75.1 33.5C74.61 32.98 73.92 32.63 73.13 32.49C72.76 32.43 72.08 32.41 71.75 32.45H71.76ZM86.32 32.49C85.66 32.63 84.9 33.09 84.51 33.61L84.35 33.82V32.69H82.46L80.57 32.71V37.82L80.55 42.93H84.35V40.02C84.35 36.94 84.35 36.88 84.57 36.46C84.77 36.07 85.16 35.84 85.62 35.84C86.02 35.84 86.24 35.92 86.49 36.16C86.89 36.56 86.88 36.41 86.89 39.88V42.93H90.66L90.64 39.21C90.62 35.53 90.62 35.48 90.52 35.09C90.46 34.87 90.31 34.48 90.18 34.22C89.99 33.83 89.89 33.68 89.59 33.39C89.2 33 88.87 32.78 88.44 32.63C87.8 32.4 86.96 32.34 86.31 32.48L86.32 32.49ZM96.22 32.49C94.57 32.75 93.22 33.64 92.41 34.99C92.17 35.4 91.98 35.87 91.83 36.44C91.71 36.9 91.7 37.01 91.7 37.8C91.7 38.73 91.74 39.04 91.96 39.71C92.53 41.46 93.95 42.7 95.85 43.12C96.16 43.19 96.44 43.21 97.13 43.21C98.11 43.21 98.49 43.14 99.22 42.85L99.59 42.7V40.98L99.61 39.26L99.3 39.44C98.85 39.71 98.47 39.81 97.9 39.84C97.31 39.87 96.99 39.81 96.56 39.59C96.17 39.39 95.86 39.07 95.66 38.65C95.52 38.36 95.51 38.3 95.51 37.85C95.51 37.45 95.53 37.31 95.62 37.1C95.93 36.33 96.65 35.87 97.62 35.83C98.31 35.8 98.59 35.87 99.58 36.36C99.6 36.36 99.61 35.61 99.61 34.66V32.95L99.31 32.83C98.41 32.47 97.22 32.34 96.22 32.5V32.49ZM104.76 32.49C101.9 32.99 100.02 35.49 100.3 38.43C100.4 39.47 100.67 40.28 101.17 41.03C101.88 42.1 102.95 42.79 104.39 43.11C105.01 43.25 106.6 43.23 107.27 43.09C108.3 42.86 109.22 42.38 109.88 41.72C110.19 41.41 110.69 40.74 110.65 40.7C110.64 40.69 109.92 40.41 109.05 40.08L107.47 39.47L107.24 39.71C106.95 40 106.72 40.14 106.36 40.23C105.26 40.52 104.15 39.94 103.97 38.98L103.93 38.77H107.46L110.99 38.75V37.89C110.99 37.25 110.96 36.93 110.9 36.64C110.65 35.48 110.2 34.6 109.46 33.88C108.76 33.19 107.97 32.77 106.91 32.53C106.44 32.43 105.24 32.4 104.76 32.49ZM51.19 37.82V42.94H54.95V32.69H51.19V37.81V37.82ZM106.26 35.34C106.52 35.41 106.68 35.5 106.92 35.72C107.15 35.93 107.28 36.16 107.34 36.44L107.38 36.63H105.67C103.74 36.63 103.89 36.67 104.06 36.23C104.34 35.48 105.28 35.1 106.26 35.34ZM73.94 35.85C74.45 35.98 75.01 36.44 75.23 36.92C75.76 38.04 75.23 39.33 74.07 39.75C73.72 39.88 73.07 39.89 72.71 39.78C72.09 39.59 71.55 39.05 71.36 38.44C71.28 38.18 71.27 38.03 71.28 37.71C71.3 37.35 71.32 37.26 71.47 36.96C71.92 36.05 72.92 35.61 73.94 35.87V35.85Z" fill="white" fill-opacity="0.5"/>
</svg>
