<svg xmlns="http://www.w3.org/2000/svg" width="256" height="50" viewBox="0 0 256 50" fill="none">
<path d="M0.404789 33.9677L3.6431 33.4487V3.69089L0 3.17186L0.173481 0H22.726L22.2056 8.99654L17.6951 8.8812L17.4059 3.22953H10.4667V16.609H13.5315L14.2254 13.5525L17.4059 13.6102V22.8374H14.2833L13.5315 19.6655H10.4667V33.8524H17.4637L18.0998 27.6817L22.8417 27.8547L23.1886 37.2549H0.231308L0.404789 33.9677Z" fill="white" fill-opacity="0.5"/>
<path d="M25.2706 37.3126L25.3862 34.5445L27.9306 34.0254V15.2826L24.9814 14.9943V12.1685L32.3833 11.1304L32.9616 12.7452V13.7832C34.7542 11.9378 36.8938 10.842 39.6695 10.842C43.7174 10.842 46.6666 13.2642 46.6666 18.1085V34.0254L49.3844 34.5445L49.1531 37.3126H40.4212V19.4349C40.4212 16.8397 39.496 15.398 37.1829 15.398C36.3734 15.398 35.8529 15.571 35.2168 15.744C34.812 16.0324 34.4651 16.5514 34.1759 16.9551V34.0254L36.836 34.5445L36.6625 37.3126C36.6047 37.3126 25.2706 37.3126 25.2706 37.3126Z" fill="white" fill-opacity="0.5"/>
<path d="M166.715 37.3126L166.831 34.5445L169.375 34.0254V15.2826L166.426 14.9943V12.1685L173.828 11.1304L174.406 12.7452V13.7832C176.199 11.9378 178.338 10.842 181.114 10.842C185.162 10.842 188.111 13.2642 188.111 18.1085V34.0254L190.829 34.5445L190.655 37.3126H181.923V19.4349C181.923 16.8397 180.998 15.398 178.685 15.398C177.876 15.398 177.355 15.571 176.719 15.744C176.314 16.0324 175.967 16.5514 175.678 16.9551V34.0254L178.338 34.5445L178.165 37.3126H166.715Z" fill="white" fill-opacity="0.5"/>
<path d="M63.2628 36.7935C62.2219 37.1972 60.4292 37.7163 58.0005 37.7163C54.8778 37.7163 51.9287 36.3322 51.9287 31.7186V15.2249L48.9795 14.7636L49.0951 11.4764L52.4491 11.3033L53.8948 6.28605L58.174 6.11304V11.4764H62.858L62.511 14.7636L58.2896 15.2249V31.6609C58.2896 33.045 59.0414 33.91 60.4292 33.91H62.9736L63.2628 36.7935Z" fill="white" fill-opacity="0.5"/>
<path d="M238.536 37.3127L238.652 34.6022L241.023 34.0831V15.2827L238.189 14.9943V12.1685L245.823 11.1304L246.343 12.9759V13.5526C248.367 12.0531 251.085 11.0728 254.323 11.0728L255.48 12.0531L254.67 19.0889L250.449 18.9159L250.044 15.1097C249.061 15.2827 248.136 15.5134 247.326 16.0901V34.0255L249.986 34.5445L249.813 37.255L238.536 37.3127Z" fill="white" fill-opacity="0.5"/>
<path d="M128.26 37.3127L128.376 34.6022L130.747 34.0831V15.2827L127.913 14.9943V12.1685L135.546 11.1304L136.067 12.9759V13.5526C138.091 12.0531 140.809 11.0728 144.047 11.0728L145.203 12.0531L144.394 19.0889L140.172 18.9159L139.768 15.1097C138.785 15.2827 137.859 15.5134 137.05 16.0901V34.0255L139.71 34.5445L139.536 37.255L128.26 37.3127Z" fill="white" fill-opacity="0.5"/>
<path d="M65.1712 37.3127L65.2868 34.6022L67.6577 34.0831V15.2827L64.8242 14.9943V12.1685L72.4574 11.1304L72.9778 12.9759V13.5526C75.0018 12.0531 77.7196 11.0728 80.9579 11.0728L82.1145 12.0531L81.3049 19.0889L77.0835 18.9159L76.6788 15.1097C75.6957 15.2827 74.7705 15.5134 73.9609 16.0901V34.0255L76.6209 34.5445L76.4474 37.255L65.1712 37.3127Z" fill="white" fill-opacity="0.5"/>
<path d="M89.4009 25.8939C89.4009 30.3922 91.367 33.8524 95.2414 33.8524C97.2075 33.8524 98.8267 33.4487 100.735 32.5837L101.776 35.0635C99.8676 36.5629 97.0919 37.774 93.5644 37.774C86.7408 37.774 82.8086 31.8916 82.8086 24.3369C82.8086 17.8778 85.6421 10.842 93.5066 10.842C100.33 10.842 102.932 17.1281 102.932 24.1638L102.296 25.8363L89.4009 25.8939ZM89.2852 22.8374L97.1497 22.4914C96.9762 19.3772 96.3401 14.4176 93.2753 14.4176C92.5235 14.4176 92.0031 14.5329 91.0779 15.052C89.8057 17.1858 89.2852 21.0497 89.2852 22.8374Z" fill="white" fill-opacity="0.5"/>
<path d="M198.231 25.8939C198.231 30.3922 200.197 33.8524 204.071 33.8524C206.095 33.8524 207.657 33.4487 209.565 32.5837L210.606 35.0635C208.698 36.5629 205.922 37.774 202.394 37.774C195.571 37.774 191.639 31.8916 191.639 24.3369C191.639 17.8778 194.472 10.842 202.337 10.842C209.16 10.842 211.762 17.1281 211.762 24.1638L211.126 25.8363L198.231 25.8939ZM198.115 22.8374L205.98 22.4914C205.806 19.3772 205.17 14.4176 202.105 14.4176C201.354 14.4176 200.833 14.5329 199.908 15.052C198.636 17.1858 198.057 21.0497 198.115 22.8374Z" fill="white" fill-opacity="0.5"/>
<path d="M152.49 25.8939C152.49 30.3922 154.456 33.8524 158.33 33.8524C160.354 33.8524 161.916 33.4487 163.824 32.5837L164.865 35.0635C162.956 36.5629 160.181 37.774 156.653 37.774C149.83 37.774 145.897 31.8916 145.897 24.3369C145.897 17.8778 148.731 10.842 156.595 10.842C163.419 10.842 166.021 17.1281 166.021 24.1638L165.327 25.8363L152.49 25.8939ZM152.374 22.8374L160.239 22.4914C160.065 19.3772 159.429 14.4176 156.364 14.4176C155.612 14.4176 155.092 14.5329 154.167 15.052C152.895 17.1858 152.374 21.0497 152.374 22.8374Z" fill="white" fill-opacity="0.5"/>
<path d="M229.399 37.3127L228.763 35.0635C227.029 36.6783 225.352 37.6587 222.749 37.6587C218.701 37.6587 215.116 35.6402 215.116 30.1039V14.533L212.167 14.2446V11.7648L220.668 10.7844L221.304 13.0336V29.2965C221.304 32.1224 222.46 33.6218 224.773 33.6218C225.409 33.6218 226.277 33.5641 227.029 33.2181C227.433 32.8144 227.838 32.2954 228.185 31.7763V14.5907L225.12 14.3023V11.8225L233.736 10.8421L234.43 13.0912V34.0255L237.09 34.5445L236.801 37.3127H229.399Z" fill="white" fill-opacity="0.5"/>
<path d="M115.654 33.9678C114.266 33.9678 113.225 33.7371 112.357 33.2758V16.7244C112.704 16.2054 113.167 15.6864 113.572 15.225C114.381 14.9367 115.075 14.8213 115.885 14.8213C119.412 14.8213 119.991 18.3969 119.991 24.7406C119.991 30.8536 119.065 32.5261 118.834 33.2181C117.909 33.7371 116.926 33.9678 115.654 33.9678ZM126.12 23.5872C126.12 15.6864 123.749 10.7844 117.967 10.7844C114.092 10.7844 112.242 13.0336 111.49 13.9563V13.0912L110.854 10.8421L103.221 11.8802V14.5907L106.17 14.9943V46.8283L103.683 47.3473L103.568 50.0001H114.844L115.017 47.3473L112.357 46.8283V36.736C113.398 37.3127 114.902 37.7164 116.579 37.7164C126.062 37.7164 126.12 28.0278 126.12 23.5872Z" fill="white" fill-opacity="0.5"/>
<path d="M253.86 33.6794C255.132 33.6794 255.942 34.4292 255.942 35.5249C255.942 36.6206 255.074 37.3703 253.86 37.3703C252.588 37.3703 251.778 36.6206 251.778 35.5249C251.778 34.4292 252.646 33.6794 253.86 33.6794ZM253.86 36.736C254.727 36.736 255.306 36.2169 255.306 35.4672C255.306 34.7175 254.727 34.1985 253.86 34.1985C252.993 34.1985 252.414 34.7175 252.414 35.4672C252.414 36.2169 252.993 36.736 253.86 36.736ZM252.935 36.3323V36.1016L253.166 36.0439V34.8905H252.935V34.6598H253.918C254.323 34.6598 254.727 34.7752 254.727 35.1789C254.727 35.4672 254.554 35.5826 254.381 35.6979C254.496 35.8709 254.67 36.0439 254.727 36.1016H254.901V36.3323H254.381C254.207 36.2169 254.034 35.9862 253.918 35.6979H253.744V36.0439L253.976 36.1016V36.3323H252.935ZM253.744 34.8905V35.3519H253.918C254.149 35.3519 254.207 35.2365 254.207 35.1212C254.207 34.8905 254.034 34.8905 253.86 34.8905H253.744Z" fill="white" fill-opacity="0.5"/>
</svg>
