<svg xmlns="http://www.w3.org/2000/svg" width="99" height="60" viewBox="0 0 99 60" fill="none">
<path d="M12.0781 26.1567V20.4533H15.6421V6.09667H12.0781V0H30.0961V6.09667H26.5321V20.4533H30.0961V26.1567H12.0781Z" fill="white" fill-opacity="0.5"/>
<path d="M47.3217 26.1565V20.4532H49.6977V14.5532C49.6977 12.7832 48.5097 11.9965 46.7277 11.9965C44.7477 11.9965 43.1637 13.3732 42.9657 15.3399V15.5365V20.4532H45.5397V26.1565H31.6797V20.4532H34.0557V11.9965H31.6797V6.29321H42.7677V10.2265C42.9657 10.0299 43.1637 9.83321 43.3617 9.63655C45.1437 7.47321 48.1137 6.29321 50.8857 6.48988C55.2417 6.48988 58.8057 8.25988 58.8057 12.9799V20.4532H61.1817V26.1565H47.3217Z" fill="white" fill-opacity="0.5"/>
<path d="M84.1501 14.5533L76.4281 15.34C76.4281 13.1767 75.8341 11.0133 73.2601 11.0133C69.8941 11.0133 69.6961 13.7667 69.6961 16.3233C69.6961 19.0767 69.8941 21.83 73.2601 21.83C74.8441 22.0267 76.4281 20.8467 76.6261 19.0767C76.6261 18.88 76.6261 18.88 76.6261 18.6833H84.3481V19.2733C83.1601 25.5667 77.4181 26.55 73.4581 26.55C67.1221 26.55 60.7861 23.4033 60.7861 16.3233C60.7861 9.24335 67.1221 6.09668 73.4581 6.09668C73.2601 6.29335 83.3581 5.70335 84.1501 14.5533Z" fill="white" fill-opacity="0.5"/>
<path d="M90.0899 23.0099C90.0899 24.7799 88.7039 26.1566 86.9219 26.1566C85.1399 26.1566 83.7539 24.7799 83.7539 23.0099C83.7539 21.2399 85.1399 19.8633 86.9219 19.8633C88.7039 19.8633 90.0899 21.2399 90.0899 23.0099Z" fill="white" fill-opacity="0.5"/>
<path d="M35.8378 28.7134C28.1158 28.7134 23.7598 33.8267 23.7598 43.8567C23.7598 53.8867 28.1158 59 35.8378 59C43.5598 59 47.9158 53.8867 47.9158 43.8567C47.9158 33.8267 43.3618 28.7134 35.8378 28.7134ZM35.8378 52.9034C33.0658 52.9034 32.4718 50.15 32.4718 43.8567C32.4718 37.5634 33.0658 34.81 35.8378 34.81C38.6098 34.81 39.2038 37.5634 39.2038 43.8567C39.2038 50.15 38.6098 52.9034 35.8378 52.9034Z" fill="white" fill-opacity="0.5"/>
<path d="M61.3798 28.7134C53.6578 28.7134 49.3018 33.8267 49.3018 43.8567C49.3018 53.8867 53.6578 59 61.3798 59C69.1018 59 73.4578 53.8867 73.4578 43.8567C73.4578 33.8267 68.9038 28.7134 61.3798 28.7134ZM61.3798 52.9034C58.6078 52.9034 58.0138 50.15 58.0138 43.8567C58.0138 37.5634 58.6078 34.81 61.3798 34.81C64.1518 34.81 64.7458 37.5634 64.7458 43.8567C64.7458 50.15 64.1518 52.9034 61.3798 52.9034Z" fill="white" fill-opacity="0.5"/>
<path d="M86.9218 28.7134C79.1998 28.7134 74.8438 33.8267 74.8438 43.8567C74.8438 53.8867 79.1998 59 86.9218 59C94.6438 59 98.9998 53.8867 98.9998 43.8567C98.9998 33.8267 94.4458 28.7134 86.9218 28.7134ZM86.9218 52.9034C84.1498 52.9034 83.5558 50.15 83.5558 43.8567C83.5558 37.5634 84.1498 34.81 86.9218 34.81C89.6938 34.81 90.2877 37.5634 90.2877 43.8567C90.2877 50.15 89.6938 52.9034 86.9218 52.9034Z" fill="white" fill-opacity="0.5"/>
<path d="M20.196 40.9066C18.216 39.3332 15.84 38.3499 13.266 38.5466C11.286 38.5466 9.108 39.1366 7.722 40.5132L8.316 35.7932H20.79V28.9099H2.574L0.594 42.6766L5.94 45.4299C7.326 44.2499 8.91 43.4632 10.692 43.4632C11.682 43.4632 12.474 43.8566 13.266 44.4466C14.256 45.4299 14.652 46.8066 14.652 48.1832C14.652 48.7732 14.652 49.3632 14.454 49.7566C14.256 51.5266 12.672 52.7066 10.89 52.5099C7.524 52.5099 7.722 48.3799 8.514 46.8066L0 51.3299C0.594 56.6399 6.138 59.1966 10.692 59.1966C13.86 59.1966 16.83 58.2132 19.008 56.2466C19.8 55.4599 20.592 54.6732 21.186 53.4932C22.176 51.9199 22.572 49.9532 22.572 48.1832C22.968 45.4299 21.978 42.8732 20.196 40.9066Z" fill="white" fill-opacity="0.5"/>
</svg>
