<svg xmlns="http://www.w3.org/2000/svg" width="174" height="44" viewBox="0 0 174 44" fill="none">
<path d="M98.2625 14.1C98.2625 9.05185 98.35 4.35185 98.6125 0L85.225 2.52407V3.74259L86.5375 3.91667C87.5 4.0037 88.1125 4.35185 88.4625 4.87407C88.8125 5.48333 89.075 6.3537 89.25 7.65926C89.425 10.1833 89.6 15.9278 89.5125 24.9796C89.5125 33.9444 89.425 39.6019 89.25 41.7778C94.0625 42.8222 97.825 43.2574 100.625 43.2574C105.875 43.2574 109.987 41.7778 112.962 38.7315C115.937 35.7722 117.512 31.5944 117.512 26.4593C117.512 22.3685 116.375 18.9741 114.1 16.2759C111.825 13.5778 108.937 12.2722 105.525 12.2722C103.25 12.2722 100.887 12.8815 98.2625 14.1ZM98.525 40.9074C98.35 38.1222 98.175 29.7667 98.175 16.1019C98.9625 15.8407 100.012 15.6667 101.325 15.6667C103.425 15.6667 105.087 16.7111 106.312 18.887C107.537 21.063 108.15 23.6741 108.15 26.9815C108.15 31.0722 107.45 34.3796 106.05 37.1648C104.65 39.863 102.9 41.2556 100.712 41.2556C100.012 41.0815 99.3125 40.9944 98.525 40.9074ZM35 0.87037H0V2.61111L1.8375 2.78519C3.2375 3.0463 4.2 3.56852 4.8125 4.35185C5.425 5.22222 5.775 6.61482 5.8625 8.52963C6.5625 17.9296 6.5625 26.7204 5.8625 34.8148C5.6875 36.7296 5.3375 38.1222 4.8125 38.9926C4.2 39.863 3.2375 40.3852 1.8375 40.5593L0 40.8204V42.5611H22.575V40.8204L20.2125 40.6463C18.8125 40.4722 17.85 39.863 17.2375 39.0796C16.625 38.2093 16.275 36.8167 16.1875 34.9019C15.925 31.4204 15.75 27.4167 15.75 22.9778L20.475 23.0648C23.0125 23.1519 24.7625 25.0667 25.6375 28.8963H27.3875V14.7093H25.6375C24.7625 18.4519 23.1 20.3667 20.475 20.4537L15.75 20.5407C15.75 12.7074 15.925 7.13704 16.1875 3.74259H23.1C28 3.74259 31.325 6.87593 33.25 13.1426L35.35 12.5333L35 0.87037ZM30.8875 27.6778C30.8875 32.2037 32.2 35.9463 34.7375 38.9056C37.275 41.8648 41.0375 43.2574 45.7625 43.2574C50.4875 43.2574 54.3375 41.7778 57.1375 38.7315C59.9375 35.7722 61.25 32.0296 61.25 27.5037C61.25 22.9778 59.9375 19.2352 57.4 16.2759C54.8625 13.3167 51.1 11.9241 46.375 11.9241C41.65 11.9241 37.8 13.4037 35 16.45C32.2 19.4093 30.8875 23.1519 30.8875 27.6778ZM50.4 17.7556C51.45 20.2796 51.8875 23.587 51.8875 27.5907C51.8875 36.8167 49.9625 41.3426 46.2 41.3426C44.275 41.3426 42.7875 40.037 41.7375 37.4259C40.6875 34.8148 40.25 31.5074 40.25 27.5907C40.25 18.4519 42.175 13.9259 45.9375 13.9259C47.8625 13.8389 49.35 15.1444 50.4 17.7556ZM124.337 38.9056C127.225 41.7778 130.9 43.2574 135.275 43.2574C137.987 43.2574 140.35 42.7352 142.45 41.6037C144.55 40.5593 146.212 39.2537 147.35 37.687L146.475 36.6426C144.55 38.1222 142.362 38.8185 139.825 38.8185C136.325 38.8185 133.612 37.687 131.775 35.337C129.85 32.987 128.975 30.0278 129.15 26.1981H147.875C147.875 22.0204 146.825 18.6259 144.637 15.9278C142.45 13.3167 139.387 12.0111 135.45 12.0111C130.55 12.0111 126.787 13.5778 124.075 16.6241C121.362 19.6704 120.05 23.413 120.05 27.8519C120.05 32.3778 121.45 36.0333 124.337 38.9056ZM130.812 17.0593C131.775 14.9704 133 13.9259 134.662 13.9259C137.287 13.9259 138.6 17.2333 138.6 23.9352L129.325 24.1093C129.412 21.4982 129.85 19.1482 130.812 17.0593ZM171.412 13.5778C169.05 12.5333 166.075 11.9241 162.487 11.9241C158.812 11.9241 155.925 12.8815 153.737 14.7093C151.55 16.537 150.412 18.8 150.412 21.4982C150.412 23.8482 151.112 25.6759 152.425 26.9815C153.737 28.287 155.837 29.4185 158.55 30.3759C161 31.2463 162.75 32.1167 163.625 32.9C164.5 33.7704 165.025 34.7278 165.025 36.0333C165.025 37.2519 164.587 38.3833 163.625 39.2537C162.75 40.2111 161.525 40.6463 159.95 40.6463C156.1 40.6463 153.212 37.8611 151.2 32.2907L149.712 32.7259L150.062 41.4296C153.212 42.6482 156.712 43.2574 160.562 43.2574C164.587 43.2574 167.65 42.387 169.925 40.5593C172.2 38.8185 173.337 36.2944 173.337 33.1611C173.337 31.0722 172.812 29.3315 171.675 28.0259C170.537 26.7204 168.7 25.5889 166.075 24.5444C163.187 23.5 161.175 22.5426 160.125 21.6722C159.075 20.8019 158.55 19.7574 158.55 18.4519C158.55 17.1463 158.9 16.1019 159.687 15.2315C160.475 14.3611 161.437 14.013 162.662 14.013C166.162 14.013 168.7 16.537 170.275 21.4982L171.762 21.063L171.412 13.5778ZM87.2375 12.7944C86.0125 12.1852 84.7 11.9241 83.2125 11.9241C81.725 11.9241 80.2375 12.5333 78.575 13.7519C76.9125 14.9704 75.6875 16.6241 74.725 18.887L74.8125 11.9241L61.5125 14.5352V15.7537L62.825 15.8407C64.4875 16.0148 65.45 17.3204 65.625 19.6704C66.15 25.0667 66.15 30.8111 65.625 36.9037C65.45 39.2537 64.4875 40.4722 62.825 40.7333L61.5125 40.9074V42.5611H80.0625V40.9074L77.7 40.7333C76.0375 40.5593 75.075 39.2537 74.9 36.9037C74.375 31.8556 74.2875 26.4593 74.725 20.8889C75.25 20.0185 76.3875 19.4963 78.1375 19.3222C79.8875 19.1482 81.9 19.6704 84 20.8889L87.2375 12.7944Z" fill="white" fill-opacity="0.5"/>
</svg>
