<svg xmlns="http://www.w3.org/2000/svg" width="137" height="49" viewBox="0 0 137 49" fill="none">
<path d="M24.5897 49C38.1703 49 49.1795 38.031 49.1795 24.5C49.1795 10.969 38.1703 0 24.5897 0C11.0092 0 0 10.969 0 24.5C0 38.031 11.0092 49 24.5897 49Z" fill="white" fill-opacity="0.5"/>
<path d="M63.2304 18.8125C63.6123 18.8358 63.9947 18.7776 64.3521 18.6418C64.7095 18.5059 65.0337 18.2957 65.303 18.025C65.811 17.3805 66.05 16.5657 65.9704 15.75V6.00251H70.4142V15.75C70.4693 16.6692 70.3271 17.5895 69.997 18.4495C69.6668 19.3096 69.1564 20.0896 68.4997 20.7375C67.031 21.9681 65.1464 22.594 63.2304 22.4875C61.3142 22.5958 59.429 21.9696 57.9612 20.7375C57.2823 20.1005 56.749 19.3254 56.3975 18.4648C56.0459 17.6042 55.8843 16.6783 55.9238 15.75V6.00251H60.3675V15.75C60.315 16.5634 60.5792 17.3657 61.1052 17.99C61.3765 18.2749 61.7078 18.4965 62.0753 18.6387C62.4427 18.7809 62.8372 18.8402 63.2304 18.8125ZM79.284 22.505C78.0002 22.5041 76.727 22.2729 75.5253 21.8225C74.3504 21.3949 73.2748 20.7341 72.3638 19.88L74.5066 17.185C75.1369 17.7548 75.862 18.2108 76.6494 18.5325C77.4865 18.8675 78.382 19.0341 79.284 19.0225C79.8086 19.051 80.3309 18.936 80.7945 18.69C80.9676 18.5886 81.1097 18.4422 81.2056 18.2665C81.3015 18.0908 81.3476 17.8923 81.339 17.6925C81.3361 17.4776 81.2739 17.2676 81.1593 17.0855C81.0447 16.9034 80.8821 16.7562 80.6892 16.66C79.9713 16.2583 79.2037 15.9524 78.4058 15.75L77.4047 15.4875C76.153 15.2181 74.999 14.613 74.0675 13.7375C73.6861 13.3401 73.3885 12.8705 73.1924 12.3565C72.9963 11.8425 72.9057 11.2945 72.9258 10.745C72.9334 9.8051 73.2274 8.88966 73.7689 8.12001C74.3425 7.34179 75.1205 6.73626 76.0171 6.37001C77.0673 5.93123 78.1982 5.71661 79.3367 5.74001C80.5406 5.74248 81.7329 5.97413 82.8495 6.42251C83.9474 6.84651 84.9635 7.45631 85.853 8.22501L83.6399 11.0075C83.0274 10.4931 82.348 10.0634 81.6201 9.73001C80.9042 9.37784 80.1175 9.19234 79.3192 9.18751C78.8076 9.15472 78.2969 9.26375 77.8438 9.50251C77.6633 9.59683 77.5142 9.74126 77.4144 9.9183C77.3147 10.0953 77.2686 10.2974 77.2817 10.5C77.2877 10.6947 77.3403 10.8852 77.435 11.0556C77.5297 11.2261 77.6638 11.3716 77.8262 11.48C78.4049 11.8521 79.0482 12.1132 79.7231 12.25L80.9351 12.5825C82.3331 12.8694 83.6192 13.5496 84.6411 14.5425C85.3555 15.3344 85.7443 16.3653 85.7301 17.43C85.7473 18.39 85.4649 19.3317 84.9221 20.125C84.3437 20.9058 83.5594 21.5115 82.6563 21.875C81.5885 22.3165 80.4399 22.5311 79.284 22.505ZM99.1666 22.19L98.1303 19.25H92.0531L91.0344 22.2775H86.6434L92.5976 6.09001H97.7615L103.628 22.19H99.1666ZM93.0894 15.89H96.936L95.1093 10.22L93.0894 15.89ZM60.7539 42.9275V30.31H55.9238V26.81H69.9751V30.31H65.1976V42.9275H60.7539ZM79.3192 43.2425C77.8041 43.2718 76.308 42.9037 74.9808 42.175C73.7391 41.4697 72.7131 40.4414 72.0125 39.2C71.262 37.8775 70.88 36.3791 70.906 34.86C70.8885 33.7123 71.0912 32.5719 71.5031 31.5C71.8998 30.503 72.4976 29.5976 73.2595 28.84C74.0239 28.0858 74.9315 27.4908 75.9293 27.09C78.0957 26.2678 80.4899 26.2678 82.6563 27.09C83.6539 27.4913 84.5614 28.0861 85.3261 28.84C86.0884 29.5973 86.6863 30.5027 87.0825 31.5C87.5434 32.5622 87.7939 33.7031 87.8202 34.86C87.8516 36.3775 87.4756 37.8758 86.7312 39.2C86.0185 40.4395 84.9801 41.462 83.7278 42.1575C82.3816 42.9043 80.8595 43.2789 79.3192 43.2425ZM79.3192 39.585C80.0436 39.6008 80.7553 39.393 81.3566 38.99C81.9562 38.5699 82.4298 37.9952 82.7266 37.3275C83.0788 36.5531 83.2528 35.71 83.236 34.86C83.2499 34.0102 83.076 33.1678 82.7266 32.3925C82.4395 31.6951 81.9656 31.0897 81.3566 30.6425C80.749 30.2443 80.0376 30.0321 79.3104 30.0321C78.5831 30.0321 77.8718 30.2443 77.2642 30.6425C76.6552 31.0897 76.1812 31.6951 75.8942 32.3925C75.5448 33.1678 75.3709 34.0102 75.3848 34.86C75.3679 35.71 75.542 36.5531 75.8942 37.3275C76.191 37.9952 76.6646 38.5699 77.2642 38.99C77.8724 39.3903 78.5906 39.5921 79.3192 39.5675V39.585ZM90.2967 42.9275V26.74H96.7076C98.1962 26.709 99.6672 27.0648 100.976 27.7725C102.185 28.4416 103.187 29.4282 103.874 30.625C104.563 31.9185 104.923 33.3606 104.923 34.825C104.923 36.2894 104.563 37.7315 103.874 39.025C103.187 40.2218 102.185 41.2084 100.976 41.8775C99.6672 42.5852 98.1962 42.941 96.7076 42.91L90.2967 42.9275ZM94.6702 39.4275H96.7076C97.2343 39.4481 97.7584 39.3447 98.2375 39.1258C98.7166 38.9069 99.1372 38.5786 99.4652 38.1675C100.174 37.2066 100.533 36.0339 100.484 34.8425C100.533 33.6511 100.174 32.4784 99.4652 31.5175C99.1372 31.1064 98.7166 30.7781 98.2375 30.5592C97.7584 30.3403 97.2343 30.2369 96.7076 30.2575H94.6702V39.4275ZM118.03 42.9275L117.012 39.9H110.917L109.898 42.9275H105.507L111.461 26.74H116.625L122.58 42.9275H118.03ZM112.041 36.6275H115.923L114.008 30.9575L112.041 36.6275ZM131.151 37.1V42.9275H126.637V37.1L120.876 26.74H125.899L128.903 33.25L131.889 26.8275H136.912L131.151 37.1Z" fill="white" fill-opacity="0.5"/>
</svg>
