<svg xmlns="http://www.w3.org/2000/svg" width="84" height="61" viewBox="0 0 84 61" fill="none">
<path d="M47.1623 33.0332C45.1576 29.8757 41.8497 27.5201 36.5872 27.47C32.1767 27.4198 28.8688 28.9234 26.5633 31.4294L26.2125 34.7874H24.2578C23.5561 36.2408 23.0048 37.8447 22.7041 39.5487C25.8616 41.353 27.8664 44.5105 27.8664 48.4198C27.8664 50.9759 27.0144 53.532 25.5108 55.5368C27.9165 58.6943 31.5251 60.3984 35.7852 60.3984C41.0478 60.3984 44.6062 58.0929 46.8115 54.8351C45.1074 52.2289 44.1051 48.7206 44.1051 44.4604C44.0549 40.1502 45.0573 36.0905 47.1623 33.0332ZM36.0358 53.9831C33.981 53.9831 32.5776 52.4795 31.9762 50.0237C31.6253 48.3697 31.5752 46.6155 31.5752 44.9115C31.5752 41.8041 31.7757 37.6943 32.9284 35.6895C33.7805 34.2862 35.1337 33.7349 36.1862 33.7349C38.3915 33.7349 39.5442 35.5392 39.9953 37.4938C40.4463 39.4485 40.5466 42.9067 40.5466 44.3101C40.5466 48.8208 39.895 53.9831 36.0358 53.9831Z" fill="white" fill-opacity="0.5"/>
<path d="M58.4405 27.5707C53.2281 27.5206 49.5193 29.6256 47.2138 32.9836C49.2687 36.1912 49.9202 40.2008 49.9202 43.4585C49.9202 47.3678 49.0181 51.5779 46.7627 54.8356C49.1684 58.4943 52.9775 60.4991 57.5885 60.4991C68.1135 60.4991 71.7722 51.4275 71.7722 43.5588C71.7221 37.1435 69.1159 27.7211 58.4405 27.5707ZM57.8892 54.0838C55.8343 54.0838 54.431 52.5802 53.8295 50.1244C53.4787 48.4705 53.4286 46.7163 53.4286 45.0122C53.4286 41.9048 53.629 37.795 54.7818 35.7903C55.6338 34.3869 56.987 33.8356 58.0395 33.8356C60.2448 33.8356 61.3975 35.6399 61.8486 37.5946C62.2997 39.5492 62.3999 43.0075 62.3999 44.4108C62.3999 48.9215 61.7484 54.0838 57.8892 54.0838Z" fill="white" fill-opacity="0.5"/>
<path d="M47.1631 33.0337C45.058 36.091 44.0557 40.1506 44.0557 44.5611C44.0557 48.8213 45.0581 52.2795 46.7621 54.9358C48.9674 51.6781 49.9196 47.4681 49.9196 43.5588C49.8695 40.2008 49.218 36.1912 47.1631 33.0337Z" fill="white" fill-opacity="0.25"/>
<path d="M22.6549 39.549C20.7504 38.4463 18.3948 37.8449 15.7886 37.8449C14.0845 37.8449 12.0296 38.1456 10.6263 38.6969C10.3256 38.8473 9.97472 38.9976 9.67401 39.1981L10.1251 34.7375H24.2086C24.81 33.4845 25.612 32.3318 26.5141 31.3795L26.8649 28.1719H3.45921L1.70503 45.2626L9.57377 46.2148C10.1251 45.4129 10.8769 44.2101 13.433 44.2101C16.6907 44.2101 18.2444 46.265 18.2444 49.1218C18.2444 51.5776 16.8912 54.0334 13.5833 54.0334C11.6788 54.0334 10.1752 53.1814 9.62389 51.3771C9.37329 50.6253 9.37329 49.8735 9.37329 49.0716L0.000976562 50.074C0.50217 52.4798 0.953244 54.685 3.00814 56.79C6.56661 60.3986 11.8291 60.3986 13.5332 60.3986C16.1895 60.3986 21.1012 60.148 24.5595 56.6397C24.9103 56.2888 25.211 55.938 25.4616 55.5871C23.4067 52.8807 22.2038 49.1218 22.2038 44.4607C22.2038 42.7566 22.3542 41.1027 22.6549 39.549Z" fill="white" fill-opacity="0.5"/>
<path d="M26.1627 34.7877L26.5135 31.4297C25.6114 32.4321 24.8094 33.5347 24.208 34.7877H26.1627Z" fill="white" fill-opacity="0.25"/>
<path d="M22.6542 39.5488C22.3535 41.1025 22.2031 42.7063 22.2031 44.4104C22.2031 49.0715 23.406 52.8304 25.4609 55.5369C26.9645 53.5321 27.8165 50.976 27.8165 48.4199C27.8165 44.5106 25.8117 41.3531 22.6542 39.5488Z" fill="white" fill-opacity="0.25"/>
<path d="M0.953125 25.0137V19.7512H4.06052V6.67001H0.953125V1.05664H17.5927V6.67001H14.4853V19.7512H17.5927V25.0137H0.953125Z" fill="white" fill-opacity="0.5"/>
<path d="M32.6779 25.0131V19.7506H35.0836V14.2876C35.0836 12.6336 33.9309 11.8818 32.3772 11.8818C30.4727 11.8818 29.0192 13.2852 29.0192 15.1897V19.7005H31.5252V24.9129H18.4941V19.7506H20.8497V11.8818H18.4941V6.66943H28.7686V10.278C28.919 10.1277 29.1194 9.92719 29.2197 9.77683C31.1242 7.6217 33.2292 6.86991 36.086 6.86991C40.0455 6.86991 43.3032 8.47373 43.3032 12.8842V19.8007H45.4082V25.0131H32.6779Z" fill="white" fill-opacity="0.5"/>
<path d="M66.1578 14.3882L59.1411 15.14C59.0408 13.1854 58.6399 11.1305 56.2843 11.1305C53.2771 11.1305 53.0265 13.6365 53.0265 16.0923V16.1424C53.0265 18.5481 53.2771 21.1042 56.2843 21.1042C57.8881 21.1042 59.2914 20.2021 59.2914 18.2474H59.542H66.3081L66.1578 18.8489C65.005 24.5625 59.8427 25.4646 56.1339 25.4646C50.32 25.4646 44.6064 22.6078 44.6064 16.1424C44.6064 9.67703 50.32 6.82022 56.1339 6.82022C56.184 6.77011 65.2556 6.21879 66.1578 14.3882Z" fill="white" fill-opacity="0.5"/>
<path d="M68.6143 25.0635C70.2474 25.0635 71.5713 23.7396 71.5713 22.1065C71.5713 20.4733 70.2474 19.1494 68.6143 19.1494C66.9811 19.1494 65.6572 20.4733 65.6572 22.1065C65.6572 23.7396 66.9811 25.0635 68.6143 25.0635Z" fill="white" fill-opacity="0.5"/>
</svg>
